# xmcd
# 
# Track frame offsets:
#     150
#     12628
#     27810
#     41538
#     51695
#     64998
#     78663
#     104063
#     123898
#     137898
#     155908
# 
# Disc length: 2220
# 
# Revision: 9
# Processed by: cddbd v1.5.2PL0 Copyright (c) Steve Scherf et al.
# Submitted via: fre:ac v1.0.31
# 
DISCID=a508aa0b
DTITLE=Joni Mitchell - The Studio Albums Disc 6 Court And Spark
DYEAR=1974
DGENRE=Rock/Pop
TTITLE0=Court And Spark
TTITLE1=Help Me
TTITLE2=Free Man In Paris
TTITLE3=People's Parties
TTITLE4=Same Situation
TTITLE5=Car On A Hill
TTITLE6=Down To You
TTITLE7=Just Like This Train
TTITLE8=Raised On Robbery
TTITLE9=Trouble Child
TTITLE10=Twisted
EXTD=YEAR: 1974
EXTT0=
EXTT1=
EXTT2=
EXTT3=
EXTT4=
EXTT5=
EXTT6=
EXTT7=
EXTT8=
EXTT9=
EXTT10=
PLAYORDER=
